<svg width="33" height="33" viewBox="0 0 33 33" fill="none" xmlns="http://www.w3.org/2000/svg">
<path d="M12.29 1.95477C12.3832 1.81824 12.4484 1.66458 12.4818 1.50268C12.5152 1.34079 12.5162 1.17387 12.4847 1.0116C12.4532 0.849323 12.3897 0.694913 12.2981 0.557308C12.2065 0.419702 12.0885 0.301634 11.951 0.209937C11.8135 0.11824 11.6591 0.0547364 11.4968 0.0231017C11.3346 -0.00853295 11.1677 -0.00766991 11.0057 0.0256405C10.8438 0.0589509 10.6901 0.124047 10.5535 0.217161C10.4169 0.310275 10.3002 0.429557 10.21 0.568102L6.87667 5.5681C6.69711 5.84395 6.63361 6.17949 6.69993 6.50188C6.76625 6.82427 6.95705 7.10749 7.23092 7.29006C7.50478 7.47264 7.8396 7.53983 8.16269 7.47706C8.48579 7.41428 8.77109 7.22661 8.95667 6.95477L12.29 1.95477ZM17.29 1.95477C17.3832 1.81824 17.4484 1.66458 17.4818 1.50268C17.5152 1.34079 17.5162 1.17387 17.4847 1.0116C17.4531 0.849323 17.3897 0.694913 17.2981 0.557308C17.2065 0.419702 17.0885 0.301634 16.951 0.209937C16.8135 0.11824 16.6591 0.0547364 16.4968 0.0231017C16.3346 -0.00853295 16.1677 -0.00766991 16.0057 0.0256405C15.8438 0.0589509 15.6901 0.124047 15.5535 0.217161C15.4169 0.310275 15.3002 0.429557 15.21 0.568102L11.8767 5.5681C11.7835 5.70463 11.7183 5.85829 11.6848 6.02019C11.6514 6.18208 11.6505 6.349 11.682 6.51127C11.7135 6.67355 11.7769 6.82796 11.8685 6.96556C11.9601 7.10317 12.0781 7.22124 12.2157 7.31293C12.3532 7.40463 12.5076 7.46813 12.6698 7.49977C12.8321 7.5314 12.999 7.53054 13.1609 7.49723C13.3228 7.46392 13.4765 7.39882 13.6131 7.30571C13.7497 7.2126 13.8665 7.09331 13.9567 6.95477L17.29 1.95477ZM22.29 1.95477C22.3832 1.81824 22.4484 1.66458 22.4818 1.50268C22.5152 1.34079 22.5162 1.17387 22.4847 1.0116C22.4531 0.849323 22.3897 0.694913 22.2981 0.557308C22.2065 0.419702 22.0885 0.301634 21.951 0.209937C21.8135 0.11824 21.6591 0.0547364 21.4968 0.0231017C21.3346 -0.00853295 21.1677 -0.00766991 21.0057 0.0256405C20.8438 0.0589509 20.6901 0.124047 20.5535 0.217161C20.4169 0.310275 20.3002 0.429557 20.21 0.568102L16.8767 5.5681C16.7835 5.70463 16.7183 5.85829 16.6848 6.02019C16.6514 6.18208 16.6505 6.349 16.682 6.51127C16.7135 6.67355 16.7769 6.82796 16.8685 6.96556C16.9601 7.10317 17.0781 7.22124 17.2157 7.31293C17.3532 7.40463 17.5076 7.46813 17.6698 7.49977C17.8321 7.5314 17.999 7.53054 18.1609 7.49723C18.3228 7.46392 18.4765 7.39882 18.6131 7.30571C18.7497 7.2126 18.8665 7.09331 18.9567 6.95477L22.29 1.95477ZM2.78833 10.0114C1.24833 10.0114 0 11.2598 0 12.7998V24.5948C0 26.6944 0.834075 28.708 2.31874 30.1927C3.8034 31.6774 5.81704 32.5114 7.91667 32.5114H17.9167C20.0163 32.5114 22.0299 31.6774 23.5146 30.1927C24.9993 28.708 25.8333 26.6944 25.8333 24.5948V22.5114H27.0833C28.5199 22.5114 29.8977 21.9408 30.9135 20.9249C31.9293 19.9091 32.5 18.5314 32.5 17.0948C32.5 15.6582 31.9293 14.2804 30.9135 13.2646C29.8977 12.2488 28.5199 11.6781 27.0833 11.6781H25.5667C25.16 10.7514 24.2917 10.0114 23.045 10.0114H2.78833Z" fill="#AE8657"/>
</svg>
