<svg width="32" height="32" viewBox="0 0 32 32" fill="none" xmlns="http://www.w3.org/2000/svg">
<path d="M3.49995 3.7001C3.29995 4.0001 3.19995 4.4001 3.19995 4.9001V27.1001C3.19995 27.6001 3.29995 28.0001 3.49995 28.3001L3.59995 28.4001L16 16.0001V15.7001L3.59995 3.6001L3.49995 3.7001Z" fill="#3D0F0F"/>
<path d="M19.6 19.7002L15.5 15.6002V15.3002L19.6 11.2002L19.7 11.3002L24.6 14.1002C26 14.9002 26 16.2002 24.6 17.0002L19.7 19.8002L19.6 19.7002Z" fill="#3D0F0F"/>
<path d="M19.7 19.6L15.5 15.5L3.5 27.5C4 28 4.7 28.1 5.6 27.6L19.7 19.6Z" fill="#3D0F0F"/>
<path d="M19.7 11.4L5.6 3.40001C4.7 2.90001 3.9 3.00001 3.5 3.50001L15.5 15.5L19.7 11.4Z" fill="#3D0F0F"/>
</svg>
