<svg width="36" height="36" viewBox="0 0 36 36" fill="none" xmlns="http://www.w3.org/2000/svg">
<path d="M17.2875 3.44246C17.3532 3.30965 17.4548 3.19786 17.5807 3.1197C17.7066 3.04154 17.8518 3.00012 18 3.00012C18.1482 3.00012 18.2934 3.04154 18.4193 3.1197C18.5452 3.19786 18.6468 3.30965 18.7125 3.44246L22.1775 10.461C22.4058 10.9229 22.7427 11.3226 23.1595 11.6256C23.5762 11.9287 24.0602 12.1261 24.57 12.201L32.319 13.335C32.4658 13.3562 32.6038 13.4182 32.7172 13.5138C32.8307 13.6094 32.9152 13.7348 32.961 13.8759C33.0069 14.017 33.0124 14.1681 32.9769 14.3121C32.9414 14.4562 32.8662 14.5874 32.76 14.691L27.156 20.148C26.7864 20.5081 26.5099 20.9527 26.3503 21.4434C26.1906 21.9341 26.1526 22.4563 26.2395 22.965L27.5625 30.675C27.5884 30.8217 27.5726 30.9728 27.5168 31.111C27.4609 31.2492 27.3674 31.3689 27.2468 31.4565C27.1263 31.544 26.9835 31.596 26.8348 31.6063C26.6861 31.6167 26.5376 31.585 26.406 31.515L19.479 27.873C19.0226 27.6333 18.5148 27.5081 17.9993 27.5081C17.4837 27.5081 16.9759 27.6333 16.5195 27.873L9.59401 31.515C9.46251 31.5846 9.31411 31.6159 9.16569 31.6053C9.01727 31.5948 8.87479 31.5428 8.75446 31.4553C8.63412 31.3678 8.54076 31.2482 8.485 31.1103C8.42923 30.9723 8.4133 30.8215 8.43901 30.675L9.76051 22.9665C9.84781 22.4576 9.80999 21.9351 9.65032 21.444C9.49065 20.953 9.21393 20.5082 8.84401 20.148L3.24001 14.6925C3.1329 14.589 3.057 14.4576 3.02096 14.3131C2.98491 14.1686 2.99017 14.0169 3.03613 13.8752C3.08209 13.7336 3.16691 13.6077 3.28093 13.5119C3.39494 13.4161 3.53357 13.3543 3.68101 13.3335L11.4285 12.201C11.9389 12.1267 12.4236 11.9295 12.8409 11.6264C13.2582 11.3233 13.5956 10.9234 13.824 10.461L17.2875 3.44246Z" stroke="white" stroke-width="3.75" stroke-linecap="round" stroke-linejoin="round"/>
</svg>
