<svg width="32" height="32" viewBox="0 0 32 32" fill="none" xmlns="http://www.w3.org/2000/svg">
<path d="M24.5 16.5C24.5 13 27.3 11.3 27.4 11.2C25.8 8.9 23.4 8.6 22.5 8.6C20.4 8.4 18.5 9.8 17.4 9.8C16.4 9.8 14.7 8.6 13 8.6C10.7 8.6 8.60001 9.9 7.40001 12C5.00001 16.1 6.80001 22.2 9.10001 25.5C10.2 27.1 11.6 28.9 13.4 28.9C15.1 28.8 15.8 27.8 17.8 27.8C19.9 27.8 20.5 28.9 22.2 28.9C24 28.9 25.3 27.2 26.5 25.6C27.8 23.7 28.4 21.9 28.4 21.8C28.3 21.8 24.8 20.4 24.8 16.5H24.5ZM19.8 6.8C20.7 5.7 21.4 4.1 21.2 2.5C19.9 2.6 18.3 3.4 17.3 4.5C16.5 5.5 15.7 7.1 15.9 8.6C17.4 8.7 18.9 7.8 19.8 6.8Z" fill="#3D0F0F"/>
</svg>
